PathFileType	4	(X/Y/Z)	52_2_20_p1_0-443_filt_butterworth.trc
DataRate	CameraRate	NumFrames	NumMarkers	Units	OrigDataRate	OrigDataStartFrame	OrigNumFrames
40.0	40.0	5	27	m	40.0	55	443
Frame#	Time	RHip			RKnee			RAnkle			RBigToe			RSmallToe			RHeel			LHip			LKnee			LAnkle			LBigToe			LSmallToe			LHeel			Neck			Head			Nose			RShoulder			RElbow			RWrist			RThumb			RIndex			RPinky			LShoulder			LElbow			LWrist			LThumb			LIndex			LPinky			
		X1	Y1	Z1	X2	Y2	Z2	X3	Y3	Z3	X4	Y4	Z4	X5	Y5	Z5	X6	Y6	Z6	X7	Y7	Z7	X8	Y8	Z8	X9	Y9	Z9	X10	Y10	Z10	X11	Y11	Z11	X12	Y12	Z12	X13	Y13	Z13	X14	Y14	Z14	X15	Y15	Z15	X16	Y16	Z16	X17	Y17	Z17	X18	Y18	Z18	X19	Y19	Z19	X20	Y20	Z20	X21	Y21	Z21	X22	Y22	Z22	X23	Y23	Z23	X24	Y24	Z24	X25	Y25	Z25	X26	Y26	Z26	X27	Y27	Z27	
55	1.375	-0.034170497363096325	0.6993786123287842	0.7667743231662352	-0.0023416509694583892	0.26298830986321575	0.7488087226953933	0.010939618377340362	-0.1463310262354845	0.7819656832524301	0.006135027218732929	-0.15422601399140473	0.6110517425915762	0.0664972075411459	-0.15140772442212835	0.6195330467897269	-0.0054682627043779256	-0.2347468937000541	0.862989781511453	-0.213054038484326	0.6907267955616707	0.7215384925378263	-0.20198484194046573	0.23430799625044232	0.7597269289075229	-0.17022554082699293	-0.16424997871262806	0.7644194047390199	-0.13847441505922045	-0.16245397448053772	0.6242883010115146	-0.20282868162370957	-0.16503770673109777	0.6366045592717835	-0.15228550902103374	-0.22555703675956623	0.8017377100024737	-0.1516928597160468	1.2136270015975315	0.7752001181433213	-0.12821669176552025	1.4654577624224039	0.7534488613652544	-0.08865173114391023	1.3361980894057321	0.7099156271475695	-0.03418045008854781	1.167952118728405	0.8806240330140136	0.15754064841991006	1.1301017465073482	0.9218368871523065	0.3358867125809505	1.1749814819568107	0.8136654409169322	0.4129461847122129	1.1568174752501565	0.7565687243484127	0.4381667891861766	1.1630243733904322	0.704274682933249	0.4318361966829834	1.1401613242200246	0.7343939468201299	-0.26851377067266985	1.1637690800738938	0.6832144381961838	-0.1702016394651885	1.1423688192620924	0.4159470714617155	0.029807792384374143	1.2094707269438503	0.2685440363873078	0.11278901863525864	1.23826546768731	0.31509074680665905	0.13160546157216502	1.2506778315626803	0.25035316303511435	0.1324838563183145	1.2150363886296864	0.23943450182705972	
56	1.4	-0.033160229763974286	0.6986642021944136	0.7665700838308019	-0.0017091209728705148	0.26178201315201133	0.7488732003955227	0.010918486029336129	-0.14599567171786187	0.7814451527936801	0.006045823341394563	-0.1537812774467644	0.6105747204135593	0.06690493518841154	-0.15115861268961428	0.6197228126211947	-0.005741975776093897	-0.2342455382735899	0.8620796270564645	-0.2105476008425666	0.6924666738718499	0.7164113152291033	-0.20123700595957753	0.23449431384476288	0.7597696235370811	-0.17005494586520983	-0.16434812182816336	0.7648545660460998	-0.1389046135049994	-0.16389021063495196	0.6244473214264572	-0.20284319929595343	-0.1651178067889324	0.6366731220913093	-0.15245957762696197	-0.2248959628269815	0.8009361062854978	-0.14803116238773806	1.2153031673326997	0.7724662543650054	-0.13044959230645858	1.468235662765371	0.7496962519345552	-0.08817926996795533	1.339696841087538	0.7070248440606762	-0.03334893841415715	1.171010334779591	0.8768207764336857	0.16116549808642022	1.1573793562953756	0.900473389153934	0.3303428629863875	1.2278787673439835	0.7930631350333446	0.4097044485842429	1.230089740846959	0.7370975522744109	0.43060739643094065	1.2352289764140858	0.7046679737641228	0.42960051470706373	1.2109868679775304	0.7302852577843189	-0.2678980698988631	1.1660943350374149	0.6876180914514992	-0.1617775061621507	1.1647682951083358	0.40931105386729083	0.03759925691917282	1.2532211912598028	0.27833795271382816	0.12222391355680223	1.2905434225496186	0.3299615663460805	0.13641833955932037	1.3040038765550002	0.26969264129591364	0.14090355871231802	1.2710912214711771	0.25776494378577075	
57	1.425	-0.03166716935135258	0.697859708503613	0.7669442844728351	-0.000732089359281346	0.2601803935022573	0.7497304395892972	0.010903511556365427	-0.14583371439284176	0.7812772029841537	0.005808802992941421	-0.15309763126450363	0.6097079728454088	0.06608825182283366	-0.150457070806881	0.6193782624308615	-0.006060617400030156	-0.23366892670089626	0.8610039496285776	-0.20753056229340108	0.6941589448061988	0.7116587179985547	-0.19990931183607802	0.23475067243566455	0.7591012428623	-0.16974554718475338	-0.16424091015585188	0.7650606579599216	-0.13921192098182036	-0.16602371462102986	0.6249814214505434	-0.20284711580569562	-0.16525572649018566	0.6367977146836917	-0.15276565098400394	-0.22394190825102883	0.7997776909628236	-0.14455602130062084	1.2159000580129453	0.7704385406752599	-0.13326435860672864	1.4717556939311303	0.7444468210889157	-0.08761938586488044	1.342472596913135	0.7056910250350855	-0.03265487498805658	1.1738312521768415	0.8730317660681216	0.16625834384168753	1.1838597908433863	0.8872030692275625	0.3265165617950978	1.275478172789686	0.7774680953461273	0.3991238605729049	1.299052591777642	0.7183245635138741	0.4167680923547866	1.3030253155166485	0.7013893511857178	0.42357026475835413	1.2785339115247014	0.723180619779088	-0.2663203358150045	1.1685211773105806	0.6915449685219455	-0.15431715029473017	1.1846575161134871	0.4030796142568547	0.04365373798154226	1.2932434653171294	0.2922906062272676	0.1327049448786718	1.339117609307716	0.3477160547094331	0.1413515741893846	1.3542158262285886	0.2905711702630642	0.14646763340326674	1.3229558993326709	0.27647911200085457	
58	1.45	-0.0297595694199074	0.6971157464942395	0.7681365444058851	0.0007222710890489592	0.25824602920254724	0.7513532127752263	0.01087740843113304	-0.14581495672525388	0.7814605197033074	0.005733331332722016	-0.15286355311573366	0.6094582186723555	0.064698502550439	-0.14965209842765076	0.6186901335330615	-0.006352888634663179	-0.23320644614033365	0.8600542703391562	-0.2041436842179037	0.6957651221687324	0.7075927896318399	-0.19786838104865478	0.23505835109628	0.7576010453952464	-0.1693564615393862	-0.16378466942808895	0.7650478388746915	-0.1390077277809796	-0.16778531129486512	0.6249978904736906	-0.20281879547505632	-0.1653896820122386	0.636969206615551	-0.15317573520598765	-0.22275791072494913	0.7982361247823351	-0.1421705368444429	1.2152254037904975	0.7700903809021311	-0.13599888882613936	1.4747364765699436	0.7396725953322263	-0.08640847624196724	1.3442980230476378	0.7061650520801859	-0.033143365933750446	1.1757837269706926	0.870515594879065	0.1692914178158647	1.209296865810654	0.8814870071045293	0.32064771187507934	1.3211325509730327	0.768415895842989	0.3762990883933535	1.3654417282632785	0.6981151619915886	0.3927876918283917	1.368963688328586	0.6903974620453379	0.40937968960214793	1.3439680618525882	0.7118334579069011	-0.2631456854238391	1.1710673767639395	0.693174600603573	-0.14733401634010784	1.2057350359953787	0.40345542489873953	0.048045067758215376	1.3320391745676943	0.3148544053248394	0.14123146985768914	1.3863147678739278	0.3700366091080352	0.1456359186688645	1.4043949766986557	0.3173757657170472	0.1498944783645182	1.3739955074854462	0.30308490181710385	
59	1.475	-0.02756692288210799	0.696346119886532	0.7702349739669667	0.0026657218821949658	0.2560010189680392	0.7534057064432167	0.010859431021850479	-0.14599108026632718	0.7819357877787104	0.005772271562799827	-0.1529250103522301	0.6096507573981461	0.06362333916489564	-0.14939410802568323	0.6186497605878147	-0.006617182774742847	-0.232855022878151	0.8592330355401464	-0.20061048744952525	0.6970473892473329	0.7044401757563742	-0.1952570648318896	0.23517348444400127	0.7556799264668542	-0.16897778335738503	-0.1630714717511555	0.7650291789637438	-0.13825024023693594	-0.16826384982672152	0.6239550501181789	-0.20274825345419814	-0.1654801459708631	0.6371478898023053	-0.1535897161188156	-0.2216350733826701	0.7965854619996138	-0.14114392142803645	1.2136995636470123	0.7707566069234046	-0.13805820014322084	1.4764687430469732	0.7352675223497059	-0.08409751591348608	1.3457634480924916	0.7056085918453089	-0.03542770421142649	1.1764751445592458	0.8694716534702835	0.1661588772223731	1.234284933591445	0.8767942902922745	0.3064888186158546	1.3672476073535642	0.7626736277519279	0.3405328941504492	1.4289377096399822	0.6808599322929529	0.3564552736399265	1.4339967309653212	0.6739737579666703	0.38174635504481264	1.4092236994769414	0.6967512141011678	-0.2585818382640991	1.1730728112662128	0.6927076426932951	-0.14087545253946557	1.2293841257606974	0.41451916622506474	0.05055259160460773	1.3717580349667198	0.3461833795138737	0.1435250291696693	1.43337231075315	0.3984116950252635	0.14725869506455475	1.4552958115939347	0.3527787505195083	0.1511784621339775	1.426330913670383	0.3396336521588789	
